<svg xmlns="http://www.w3.org/2000/svg" viewBox="0 0 32 32">
  <title>MKKP_ikon_városfelújítás</title>
  <g id="Layer_2" data-name="Layer 2">
    <circle cx="16" cy="16" r="16" style="fill: #fff"/>
  </g>
  <g id="Layer_1" data-name="Layer 1">
    <g>
      <rect x="4" y="10" width="8" height="1" style="fill: gray"/>
      <g>
        <path d="M11,12.5A1.5,1.5,0,0,1,9.5,11V10A1.5,1.5,0,0,1,11,8.5h2.5v4Z" style="fill: #ccc"/>
        <path d="M13,9v3H11a1,1,0,0,1-1-1V10a1,1,0,0,1,1-1h2m1-1H11a2,2,0,0,0-2,2v1a2,2,0,0,0,2,2h3V8Z"/>
      </g>
      <g>
        <rect x="19.5" y="13.5" width="4" height="4"/>
        <path d="M23,14v3H20V14h3m1-1H19v5h5V13Z"/>
      </g>
      <g>
        <path d="M23.5,20v5.5a2,2,0,0,1-2,2h-7a2,2,0,0,1-2-2h0a2,2,0,0,1,2-2h1a2,2,0,0,0,2-2h0a2,2,0,0,0-2-2H10" style="fill: none;stroke: #000;stroke-miterlimit: 10"/>
        <rect x="6" y="18" width="3" height="1" style="fill: gray"/>
        <rect x="6" y="20" width="3" height="1" style="fill: gray"/>
        <rect x="8" y="17.5" width="3" height="4"/>
      </g>
      <g>
        <path d="M23,21.5A1.5,1.5,0,0,1,21.5,20v-.547a7.5,7.5,0,0,0-.331-2.206L20.631,15.5H14.793L12.5,13.207V8.5H23.3a1.549,1.549,0,0,1,1.385,2.242l-.188.376v3.8l.564,1.691A8.473,8.473,0,0,1,25.5,19.3V20A1.5,1.5,0,0,1,24,21.5Z" style="fill: #f15a24"/>
        <path d="M23.3,9a1.049,1.049,0,0,1,.938,1.518L24,11v4l.589,1.768A8,8,0,0,1,25,19.3V20a1,1,0,0,1-1,1H23a1,1,0,0,1-1-1v-.547a7.983,7.983,0,0,0-.354-2.353L21,15H15l-2-2V9H23.3m0-1H12v5.414l.293.293,2,2,.293.293h5.675l.429,1.394A6.976,6.976,0,0,1,21,19.453V20a2,2,0,0,0,2,2h1a2,2,0,0,0,2-2v-.7a9,9,0,0,0-.462-2.846L25,14.838v-3.6l.135-.271A2.048,2.048,0,0,0,23.3,8Z"/>
      </g>
      <rect x="15" y="10" width="2" height="1"/>
      <rect x="15" y="12" width="2" height="1"/>
    </g>
  </g>
</svg>
